<?xml version="1.0" standalone="no"?>
<!DOCTYPE svg PUBLIC "-//W3C//DTD SVG 20010904//EN"
 "http://www.w3.org/TR/2001/REC-SVG-20010904/DTD/svg10.dtd">
<svg version="1.0" xmlns="http://www.w3.org/2000/svg"
 width="500.000000pt" height="500.000000pt" viewBox="0 0 500.000000 500.000000"
 preserveAspectRatio="xMidYMid meet">
<metadata>
Created by potrace 1.14, written by Peter Selinger 2001-2017
</metadata>
<g transform="translate(0.000000,500.000000) scale(0.100000,-0.100000)"
fill="#000000" stroke="none">
<path d="M2244 4965 c-38 -19 -91 -55 -119 -79 -42 -38 -48 -47 -39 -63 6 -10
222 -144 480 -298 258 -154 492 -295 518 -312 66 -44 107 -44 151 0 42 42 52
89 37 189 -14 94 -38 144 -95 194 -55 49 -593 357 -670 384 -35 13 -82 20
-125 20 -59 0 -79 -5 -138 -35z"/>
<path d="M1472 4969 c-80 -13 -160 -56 -223 -118 -106 -106 -146 -242 -115
-383 60 -271 349 -409 598 -285 l68 33 102 -60 c57 -33 281 -162 498 -287 279
-160 403 -237 423 -261 21 -26 34 -62 53 -154 14 -65 28 -142 31 -171 6 -57 5
-57 -145 -215 -30 -31 -52 -60 -48 -66 3 -5 17 -13 32 -16 67 -17 172 -116
194 -182 6 -19 15 -34 19 -34 11 0 245 251 260 278 9 16 13 110 14 325 3 434
3 434 -274 586 -231 127 -664 376 -839 482 l-155 95 -7 66 c-23 236 -248 406
-486 367z m201 -182 c82 -48 137 -141 137 -232 0 -186 -199 -318 -368 -245
-63 27 -133 101 -150 158 -15 50 -15 124 0 174 16 54 82 126 143 155 69 33
172 29 238 -10z"/>
<path d="M3720 4746 c-162 -44 -282 -176 -311 -343 -25 -145 40 -305 162 -397
l46 -36 -4 -572 c-3 -343 -9 -586 -15 -606 -10 -32 -34 -58 -176 -186 -88 -79
-93 -80 -277 -36 -69 17 -127 30 -129 30 -1 0 -2 -42 -1 -92 0 -81 -3 -100
-28 -153 -15 -33 -35 -67 -44 -77 -20 -22 -31 -18 187 -69 96 -22 187 -38 202
-35 34 7 456 245 525 297 29 21 65 60 80 87 l28 47 5 669 5 670 50 29 c147 85
222 223 213 392 -14 261 -269 449 -518 381z m210 -162 c45 -19 106 -78 133
-129 16 -31 22 -58 22 -115 0 -65 -4 -82 -29 -128 -107 -192 -390 -181 -476
20 -32 76 -26 177 15 244 71 113 212 159 335 108z"/>
<path d="M1072 4165 c-42 -16 -360 -190 -547 -300 -209 -123 -267 -221 -245
-412 11 -97 17 -113 42 -113 11 0 136 63 277 139 141 77 373 202 516 279 143
77 272 150 288 162 76 60 31 158 -101 218 -85 39 -169 49 -230 27z"/>
<path d="M4284 4039 c-5 -8 -10 -93 -12 -189 -1 -96 -6 -371 -11 -610 -6 -302
-5 -442 2 -458 14 -30 57 -52 102 -52 73 0 193 86 240 171 l30 54 0 405 c0
403 0 405 -24 464 -31 78 -90 135 -185 180 -92 44 -130 53 -142 35z"/>
<path d="M1675 3741 c-22 -10 -137 -74 -255 -143 -262 -153 -581 -331 -774
-433 l-144 -75 -49 24 c-127 64 -293 50 -420 -37 l-33 -22 0 -320 0 -320 35
-23 c19 -13 62 -35 96 -49 54 -22 74 -24 158 -21 83 3 105 7 163 35 86 41 160
114 199 197 31 66 54 174 44 206 -7 23 -40 3 385 240 190 106 409 229 487 273
176 98 185 99 363 38 158 -54 169 -60 185 -91 7 -14 27 -77 45 -140 19 -63 37
-119 41 -123 3 -5 27 7 52 26 59 45 157 72 232 64 49 -5 55 -4 51 11 -74 255
-100 340 -107 353 -10 20 -488 307 -551 331 -62 23 -151 23 -203 -1z m-1280
-769 c158 -81 194 -292 72 -421 -99 -104 -271 -108 -375 -8 -58 56 -77 102
-77 193 0 72 3 85 30 129 35 56 87 101 141 121 53 20 158 13 209 -14z"/>
<path d="M1645 2878 c-101 -52 -424 -234 -460 -259 -65 -44 -114 -100 -129
-149 -11 -36 -15 -172 -20 -690 -3 -355 -8 -654 -11 -666 -4 -11 -22 -29 -42
-39 -49 -27 -132 -120 -159 -180 -96 -211 -6 -459 204 -558 63 -30 74 -32 177
-32 104 0 114 2 176 32 84 42 160 118 202 202 30 62 32 72 32 176 0 99 -3 116
-28 169 -36 78 -87 138 -150 181 l-52 35 3 547 c2 302 6 564 9 583 9 56 29 85
99 147 37 32 88 77 114 100 71 65 79 66 227 33 70 -16 136 -31 145 -34 15 -3
16 3 11 60 -7 80 17 177 59 235 16 22 28 42 26 44 -6 6 -356 85 -375 85 -10
-1 -36 -10 -58 -22z m-330 -1917 c55 -25 104 -76 133 -140 77 -168 -55 -371
-243 -371 -188 0 -320 203 -243 371 29 62 74 110 132 139 54 26 164 27 221 1z"/>
<path d="M2373 2874 c-43 -22 -191 -176 -209 -219 -22 -53 -17 -118 17 -229
49 -160 74 -183 244 -222 121 -28 157 -29 211 -5 43 20 190 172 211 219 20 45
15 117 -17 222 -35 120 -40 129 -83 167 -26 22 -60 36 -140 56 -121 31 -188
34 -234 11z"/>
<path d="M4650 2677 c-84 -19 -149 -55 -213 -118 -63 -63 -101 -134 -117 -219
-6 -29 -11 -54 -13 -56 -1 -1 -225 -129 -497 -284 -406 -232 -503 -284 -540
-287 -35 -4 -79 7 -195 45 -179 59 -175 56 -224 227 -19 66 -37 124 -41 128
-4 5 -27 -5 -50 -22 -59 -43 -132 -64 -218 -64 -63 1 -72 -2 -68 -16 91 -312
99 -338 124 -365 29 -30 427 -271 518 -313 76 -34 146 -40 209 -16 28 11 149
78 270 150 250 149 590 342 746 426 l106 57 59 -35 c77 -47 142 -65 229 -65
85 0 153 19 218 59 l47 31 -1 137 c-1 132 -1 136 -15 98 -49 -139 -217 -213
-352 -155 -63 27 -133 101 -150 158 -18 59 -15 150 7 198 41 90 125 146 232
152 113 7 202 -47 255 -154 l24 -49 -3 135 -2 134 -33 23 c-84 56 -215 81
-312 60z"/>
<path d="M572 2324 c-76 -38 -155 -114 -183 -176 -24 -53 -24 -55 -24 -443 0
-388 0 -390 24 -449 34 -85 89 -140 185 -186 150 -71 155 -66 156 155 1 83 7
350 14 595 15 496 16 489 -49 516 -47 19 -63 18 -123 -12z"/>
<path d="M1917 2168 c-94 -100 -127 -143 -136 -173 -7 -25 -11 -146 -11 -319
0 -426 -4 -419 320 -600 245 -138 561 -322 753 -440 l147 -90 0 -48 c0 -207
145 -387 345 -428 150 -31 318 36 412 163 159 216 81 514 -165 630 -62 30 -75
32 -172 32 -93 0 -112 -3 -161 -26 l-57 -27 -118 70 c-66 39 -284 167 -486
285 -202 118 -380 228 -397 245 -31 32 -41 63 -81 258 -16 76 -19 112 -12 130
6 14 53 71 106 127 53 55 96 105 96 110 0 4 -22 16 -50 26 -61 22 -147 103
-174 165 -11 23 -22 42 -26 42 -5 0 -64 -60 -133 -132z m1610 -1446 c95 -49
148 -136 147 -242 -3 -153 -111 -260 -264 -260 -135 1 -240 89 -264 223 -16
87 35 206 108 256 83 55 191 65 273 23z"/>
<path d="M4430 1599 c-140 -77 -354 -196 -475 -262 -121 -67 -247 -135 -280
-152 -72 -36 -97 -75 -85 -131 11 -50 44 -81 123 -119 82 -40 150 -51 216 -35
46 11 499 262 631 348 79 53 128 106 157 169 24 51 25 64 21 167 -4 109 -17
156 -41 156 -7 0 -127 -64 -267 -141z"/>
<path d="M1789 872 c-54 -27 -71 -71 -66 -172 5 -102 32 -171 85 -223 42 -40
446 -282 597 -358 55 -27 120 -53 145 -58 56 -11 43 -12 -92 -11 -86 1 -108
-2 -108 -13 0 -16 -1 -16 164 -18 128 -1 171 9 136 31 -12 8 -10 10 10 10 59
1 250 122 250 158 0 26 -13 36 -210 154 -354 213 -746 451 -785 478 -55 37
-85 43 -126 22z"/>
</g>
</svg>
